<svg xmlns="http://www.w3.org/2000/svg" width="2296.97" height="1060" viewBox="0 0 2296.97 1060">
  <metadata><?xpacket begin="﻿" id="W5M0MpCehiHzreSzNTczkc9d"?>
<x:xmpmeta xmlns:x="adobe:ns:meta/" x:xmptk="Adobe XMP Core 5.6-c140 79.160451, 2017/05/06-01:08:21        ">
   <rdf:RDF xmlns:rdf="http://www.w3.org/1999/02/22-rdf-syntax-ns#">
      <rdf:Description rdf:about=""/>
   </rdf:RDF>
</x:xmpmeta>
                                                                                                    
                                                                                                    
                                                                                                    
                                                                                                    
                                                                                                    
                                                                                                    
                                                                                                    
                                                                                                    
                                                                                                    
                                                                                                    
                                                                                                    
                                                                                                    
                                                                                                    
                                                                                                    
                                                                                                    
                                                                                                    
                                                                                                    
                                                                                                    
                                                                                                    
                                                                                                    
                           
<?xpacket end="w"?></metadata>
<defs>
    <style>
      .cls-1 {
        mix-blend-mode: luminosity;
      }

      .cls-2, .cls-4, .cls-5 {
        fill: #fff;
      }

      .cls-2, .cls-3, .cls-4, .cls-5 {
        fill-rule: evenodd;
      }

      .cls-2 {
        opacity: 0.02;
      }

      .cls-3 {
        fill: #a999d2;
        opacity: 0.12;
      }

      .cls-4 {
        opacity: 0.03;
      }

      .cls-5 {
        opacity: 0.04;
      }
    </style>
  </defs>
  <g id="bg" class="cls-1">
    <path id="Эллипс_547_копия_3" data-name="Эллипс 547 копия 3" class="cls-2" d="M-135.331,1679.21C-919.09,1241.59-846.547,832.725-732.895,525.887-617.066,213.169,294.325,551.818,1045.66,933.27c748.08,379.8,1279.16,179.7,1250.19,529.04C2268.57,1791.29,599.126,2089.3-135.331,1679.21Z" transform="translate(0 -403)"/>
    <path id="Эллипс_547_копия_2" data-name="Эллипс 547 копия 2" class="cls-2" d="M778.087,2343C48.56,1802.77-1308.78,852.39-1328.82,607.788-1346.97,386.31,235.334,705.293,952.9,1068.45S2294.52,1865.56,2161.83,2158.59C2044.61,2417.46,1438.27,2831.88,778.087,2343ZM2159.05,2103.24" transform="translate(0 -403)"/>
    <path id="Эллипс_547_копия" data-name="Эллипс 547 копия" class="cls-3" d="M-101.844,1706.42c-609.811-346.88-691.1-540.33-515.017-784.445,205.385-284.726,490.794-45.633,1062.65,254.745C1027.71,1482.38,1781.5,1538.85,1670.76,1773.65,1655.59,1805.81,469.61,2031.48-101.844,1706.42Z" transform="translate(0 -403)"/>
    <path id="Эллипс_547_копия_4" data-name="Эллипс 547 копия 4" class="cls-4" d="M-288.629,1655.99c320.278,216.28,1436.5,205.78,1495.769,179.29,107.07-47.88-909.65-445.02-1333.541-691.52-73.943-42.99-159.214-118.22-226.97,21.61S-311.754,1640.38-288.629,1655.99Z" transform="translate(0 -403)"/>
    <path id="Эллипс_547" data-name="Эллипс 547" class="cls-5" d="M-182.374,2016.85c639.475,329.4,978.951,153.98,1059.625,116.24C1022.98,2064.9,635.859,1697.12,77.18,1344.8s-745.163-251.32-839.15-57.27S-765.139,1716.66-182.374,2016.85Z" transform="translate(0 -403)"/>
  </g>
</svg>
